%TF.GenerationSoftware,KiCad,Pcbnew,8.0.5*%
%TF.CreationDate,2024-11-29T19:22:44+02:00*%
%TF.ProjectId,harmi,6861726d-692e-46b6-9963-61645f706362,rev?*%
%TF.SameCoordinates,Original*%
%TF.FileFunction,Soldermask,Bot*%
%TF.FilePolarity,Negative*%
%FSLAX46Y46*%
G04 Gerber Fmt 4.6, Leading zero omitted, Abs format (unit mm)*
G04 Created by KiCad (PCBNEW 8.0.5) date 2024-11-29 19:22:44*
%MOMM*%
%LPD*%
G01*
G04 APERTURE LIST*
G04 Aperture macros list*
%AMRoundRect*
0 Rectangle with rounded corners*
0 $1 Rounding radius*
0 $2 $3 $4 $5 $6 $7 $8 $9 X,Y pos of 4 corners*
0 Add a 4 corners polygon primitive as box body*
4,1,4,$2,$3,$4,$5,$6,$7,$8,$9,$2,$3,0*
0 Add four circle primitives for the rounded corners*
1,1,$1+$1,$2,$3*
1,1,$1+$1,$4,$5*
1,1,$1+$1,$6,$7*
1,1,$1+$1,$8,$9*
0 Add four rect primitives between the rounded corners*
20,1,$1+$1,$2,$3,$4,$5,0*
20,1,$1+$1,$4,$5,$6,$7,0*
20,1,$1+$1,$6,$7,$8,$9,0*
20,1,$1+$1,$8,$9,$2,$3,0*%
%AMOutline5P*
0 Free polygon, 5 corners , with rotation*
0 The origin of the aperture is its center*
0 number of corners: always 5*
0 $1 to $10 corner X, Y*
0 $11 Rotation angle, in degrees counterclockwise*
0 create outline with 5 corners*
4,1,5,$1,$2,$3,$4,$5,$6,$7,$8,$9,$10,$1,$2,$11*%
%AMOutline6P*
0 Free polygon, 6 corners , with rotation*
0 The origin of the aperture is its center*
0 number of corners: always 6*
0 $1 to $12 corner X, Y*
0 $13 Rotation angle, in degrees counterclockwise*
0 create outline with 6 corners*
4,1,6,$1,$2,$3,$4,$5,$6,$7,$8,$9,$10,$11,$12,$1,$2,$13*%
%AMOutline7P*
0 Free polygon, 7 corners , with rotation*
0 The origin of the aperture is its center*
0 number of corners: always 7*
0 $1 to $14 corner X, Y*
0 $15 Rotation angle, in degrees counterclockwise*
0 create outline with 7 corners*
4,1,7,$1,$2,$3,$4,$5,$6,$7,$8,$9,$10,$11,$12,$13,$14,$1,$2,$15*%
%AMOutline8P*
0 Free polygon, 8 corners , with rotation*
0 The origin of the aperture is its center*
0 number of corners: always 8*
0 $1 to $16 corner X, Y*
0 $17 Rotation angle, in degrees counterclockwise*
0 create outline with 8 corners*
4,1,8,$1,$2,$3,$4,$5,$6,$7,$8,$9,$10,$11,$12,$13,$14,$15,$16,$1,$2,$17*%
G04 Aperture macros list end*
%ADD10C,6.000000*%
%ADD11R,1.200000X1.500000*%
%ADD12C,1.600000*%
%ADD13R,1.200000X1.600000*%
%ADD14R,1.600000X1.600000*%
%ADD15C,3.200000*%
%ADD16RoundRect,0.250000X-0.550000X-0.550000X0.550000X-0.550000X0.550000X0.550000X-0.550000X0.550000X0*%
%ADD17O,4.100000X3.000000*%
%ADD18R,1.800000X0.820000*%
%ADD19Outline5P,-0.900000X0.139400X-0.629400X0.410000X0.900000X0.410000X0.900000X-0.410000X-0.900000X-0.410000X0.000000*%
%ADD20O,1.600000X2.000000*%
%ADD21C,0.800000*%
%ADD22O,2.500000X1.500000*%
%ADD23O,1.500000X2.500000*%
%ADD24C,2.400000*%
%ADD25C,1.900000*%
%ADD26C,3.500000*%
%ADD27O,1.700000X1.700000*%
%ADD28R,1.700000X1.700000*%
G04 APERTURE END LIST*
D10*
%TO.C,REF\u002A\u002A*%
X105000000Y-73000000D03*
X105000000Y-104000000D03*
X180000000Y-73000000D03*
X180000000Y-104000000D03*
%TD*%
D11*
%TO.C,R1*%
X186000000Y-75000000D03*
X186000000Y-77700000D03*
D12*
X186000000Y-72450000D03*
X186000000Y-80250000D03*
%TD*%
D13*
%TO.C,D20*%
X239350000Y-138300000D03*
X239350000Y-141100000D03*
D12*
X239350000Y-135800000D03*
D14*
X239350000Y-143600000D03*
%TD*%
D13*
%TO.C,D19*%
X217850000Y-138300000D03*
X217850000Y-141100000D03*
D12*
X217850000Y-135800000D03*
D14*
X217850000Y-143600000D03*
%TD*%
D13*
%TO.C,D18*%
X196350000Y-138300000D03*
X196350000Y-141100000D03*
D12*
X196350000Y-135800000D03*
D14*
X196350000Y-143600000D03*
%TD*%
D13*
%TO.C,D17*%
X174850000Y-138300000D03*
X174850000Y-141100000D03*
D12*
X174850000Y-135800000D03*
D14*
X174850000Y-143600000D03*
%TD*%
D13*
%TO.C,D16*%
X153350000Y-138300000D03*
X153350000Y-141100000D03*
D12*
X153350000Y-135800000D03*
D14*
X153350000Y-143600000D03*
%TD*%
D13*
%TO.C,D15*%
X131850000Y-138300000D03*
X131850000Y-141100000D03*
D12*
X131850000Y-135800000D03*
D14*
X131850000Y-143600000D03*
%TD*%
D13*
%TO.C,D14*%
X250100000Y-119680452D03*
X250100000Y-122480452D03*
D12*
X250100000Y-117180452D03*
D14*
X250100000Y-124980452D03*
%TD*%
%TO.C,D13*%
X228600000Y-124980452D03*
D12*
X228600000Y-117180452D03*
D13*
X228600000Y-122480452D03*
X228600000Y-119680452D03*
%TD*%
%TO.C,D12*%
X207100000Y-119680452D03*
X207100000Y-122480452D03*
D12*
X207100000Y-117180452D03*
D14*
X207100000Y-124980452D03*
%TD*%
D13*
%TO.C,D11*%
X185600000Y-119680452D03*
X185600000Y-122480452D03*
D12*
X185600000Y-117180452D03*
D14*
X185600000Y-124980452D03*
%TD*%
D13*
%TO.C,D10*%
X164100000Y-119680452D03*
X164100000Y-122480452D03*
D12*
X164100000Y-117180452D03*
D14*
X164100000Y-124980452D03*
%TD*%
D13*
%TO.C,D9*%
X142600000Y-119680452D03*
X142600000Y-122480452D03*
D12*
X142600000Y-117180452D03*
D14*
X142600000Y-124980452D03*
%TD*%
D13*
%TO.C,D8*%
X88850000Y-138300000D03*
X88850000Y-141100000D03*
D12*
X88850000Y-135800000D03*
D14*
X88850000Y-143600000D03*
%TD*%
D13*
%TO.C,D7*%
X67350000Y-138300000D03*
X67350000Y-141100000D03*
D12*
X67350000Y-135800000D03*
D14*
X67350000Y-143600000D03*
%TD*%
D13*
%TO.C,D6*%
X99600000Y-119680452D03*
X99600000Y-122480452D03*
D12*
X99600000Y-117180452D03*
D14*
X99600000Y-124980452D03*
%TD*%
D13*
%TO.C,D5*%
X78100000Y-119680452D03*
X78100000Y-122480452D03*
D12*
X78100000Y-117180452D03*
D14*
X78100000Y-124980452D03*
%TD*%
D13*
%TO.C,D4*%
X88850000Y-101060904D03*
X88850000Y-103860904D03*
D12*
X88850000Y-98560904D03*
D14*
X88850000Y-106360904D03*
%TD*%
D13*
%TO.C,D3*%
X67350000Y-101060904D03*
X67350000Y-103860904D03*
D12*
X67350000Y-98560904D03*
D14*
X67350000Y-106360904D03*
%TD*%
D13*
%TO.C,D2*%
X99600000Y-82441356D03*
X99600000Y-85241356D03*
D12*
X99600000Y-79941356D03*
D14*
X99600000Y-87741356D03*
%TD*%
D13*
%TO.C,D1*%
X78100000Y-82441356D03*
X78100000Y-85241356D03*
D12*
X78100000Y-79941356D03*
D14*
X78100000Y-87741356D03*
%TD*%
D15*
%TO.C,REF\u002A\u002A*%
X251000000Y-73000000D03*
%TD*%
%TO.C,REF\u002A\u002A*%
X251000000Y-150000000D03*
%TD*%
%TO.C,REF\u002A\u002A*%
X45000000Y-150000000D03*
%TD*%
%TO.C,REF\u002A\u002A*%
X45000000Y-73000000D03*
%TD*%
D16*
%TO.C,S21*%
X226180000Y-86400000D03*
D12*
X226180000Y-91400000D03*
X226180000Y-88900000D03*
D17*
X233680000Y-83300000D03*
X233680000Y-94500000D03*
%TD*%
D18*
%TO.C,RGB20*%
X231200000Y-135750000D03*
X231200000Y-134250000D03*
D19*
X226000000Y-134250000D03*
D18*
X226000000Y-135750000D03*
%TD*%
%TO.C,RGB19*%
X209950000Y-135750000D03*
X209950000Y-134250000D03*
D19*
X204750000Y-134250000D03*
D18*
X204750000Y-135750000D03*
%TD*%
%TO.C,RGB18*%
X188200000Y-135750000D03*
X188200000Y-134250000D03*
D19*
X183000000Y-134250000D03*
D18*
X183000000Y-135750000D03*
%TD*%
%TO.C,RGB17*%
X166700000Y-135750000D03*
X166700000Y-134250000D03*
D19*
X161500000Y-134250000D03*
D18*
X161500000Y-135750000D03*
%TD*%
%TO.C,RGB16*%
X145200000Y-135750000D03*
X145200000Y-134250000D03*
D19*
X140000000Y-134250000D03*
D18*
X140000000Y-135750000D03*
%TD*%
%TO.C,RGB15*%
X123700000Y-135750000D03*
X123700000Y-134250000D03*
D19*
X118500000Y-134250000D03*
D18*
X118500000Y-135750000D03*
%TD*%
%TO.C,RGB14*%
X241950000Y-117130452D03*
X241950000Y-115630452D03*
D19*
X236750000Y-115630452D03*
D18*
X236750000Y-117130452D03*
%TD*%
%TO.C,RGB13*%
X220450000Y-117130452D03*
X220450000Y-115630452D03*
D19*
X215250000Y-115630452D03*
D18*
X215250000Y-117130452D03*
%TD*%
%TO.C,RGB12*%
X198950000Y-117130452D03*
X198950000Y-115630452D03*
D19*
X193750000Y-115630452D03*
D18*
X193750000Y-117130452D03*
%TD*%
%TO.C,RGB11*%
X177450000Y-117130452D03*
X177450000Y-115630452D03*
D19*
X172250000Y-115630452D03*
D18*
X172250000Y-117130452D03*
%TD*%
%TO.C,RGB10*%
X155950000Y-117130452D03*
X155950000Y-115630452D03*
D19*
X150750000Y-115630452D03*
D18*
X150750000Y-117130452D03*
%TD*%
%TO.C,RGB9*%
X134450000Y-117130452D03*
X134450000Y-115630452D03*
D19*
X129250000Y-115630452D03*
D18*
X129250000Y-117130452D03*
%TD*%
%TO.C,RGB8*%
X80700000Y-135750000D03*
X80700000Y-134250000D03*
D19*
X75500000Y-134250000D03*
D18*
X75500000Y-135750000D03*
%TD*%
%TO.C,RGB7*%
X59200000Y-135750000D03*
X59200000Y-134250000D03*
D19*
X54000000Y-134250000D03*
D18*
X54000000Y-135750000D03*
%TD*%
%TO.C,RGB6*%
X91450000Y-117130452D03*
X91450000Y-115630452D03*
D19*
X86250000Y-115630452D03*
D18*
X86250000Y-117130452D03*
%TD*%
%TO.C,RGB5*%
X69950000Y-117130452D03*
X69950000Y-115630452D03*
D19*
X64750000Y-115630452D03*
D18*
X64750000Y-117130452D03*
%TD*%
%TO.C,RGB4*%
X80700000Y-98510904D03*
X80700000Y-97010904D03*
D19*
X75500000Y-97010904D03*
D18*
X75500000Y-98510904D03*
%TD*%
%TO.C,RGB3*%
X59200000Y-98510904D03*
X59200000Y-97010904D03*
D19*
X54000000Y-97010904D03*
D18*
X54000000Y-98510904D03*
%TD*%
%TO.C,RGB2*%
X91450000Y-79891356D03*
X91450000Y-78391356D03*
D19*
X86250000Y-78391356D03*
D18*
X86250000Y-79891356D03*
%TD*%
%TO.C,RGB1*%
X64750000Y-79891356D03*
D19*
X64750000Y-78391356D03*
D18*
X69950000Y-78391356D03*
X69950000Y-79891356D03*
%TD*%
D20*
%TO.C,J2*%
X188700000Y-82187500D03*
X193300000Y-81087500D03*
X193300000Y-74087500D03*
D21*
X191000000Y-79487500D03*
X191000000Y-72487500D03*
D20*
X193300000Y-77087500D03*
%TD*%
D22*
%TO.C,U1*%
X197620000Y-70460000D03*
X197620000Y-73000000D03*
X197620000Y-75540000D03*
X197620000Y-78080000D03*
X197620000Y-80620000D03*
X197620000Y-83160000D03*
X197620000Y-85700000D03*
X197620000Y-88240000D03*
X197620000Y-90780000D03*
D23*
X200660000Y-91280000D03*
X203200000Y-91280000D03*
X205740000Y-91280000D03*
X208280000Y-91280000D03*
X210820000Y-91280000D03*
D22*
X213860000Y-90780000D03*
X213860000Y-88240000D03*
X213860000Y-85700000D03*
X213860000Y-83160000D03*
X213860000Y-80620000D03*
X213860000Y-78080000D03*
X213860000Y-75540000D03*
X213860000Y-73000000D03*
X213860000Y-70460000D03*
%TD*%
D24*
%TO.C,S20*%
X228600000Y-145600000D03*
X223600000Y-143500000D03*
D25*
X234100000Y-139700000D03*
D26*
X228600000Y-139700000D03*
D25*
X223100000Y-139700000D03*
%TD*%
%TO.C,S19*%
X201600000Y-139700000D03*
D26*
X207100000Y-139700000D03*
D25*
X212600000Y-139700000D03*
D24*
X202100000Y-143500000D03*
X207100000Y-145600000D03*
%TD*%
D25*
%TO.C,S18*%
X180100000Y-139700000D03*
D26*
X185600000Y-139700000D03*
D25*
X191100000Y-139700000D03*
D24*
X180600000Y-143500000D03*
X185600000Y-145600000D03*
%TD*%
D25*
%TO.C,S17*%
X158600000Y-139700000D03*
D26*
X164100000Y-139700000D03*
D25*
X169600000Y-139700000D03*
D24*
X159100000Y-143500000D03*
X164100000Y-145600000D03*
%TD*%
D25*
%TO.C,S16*%
X137100000Y-139700000D03*
D26*
X142600000Y-139700000D03*
D25*
X148100000Y-139700000D03*
D24*
X137600000Y-143500000D03*
X142600000Y-145600000D03*
%TD*%
D25*
%TO.C,S15*%
X115600000Y-139700000D03*
D26*
X121100000Y-139700000D03*
D25*
X126600000Y-139700000D03*
D24*
X116100000Y-143500000D03*
X121100000Y-145600000D03*
%TD*%
D25*
%TO.C,S14*%
X233850000Y-121080452D03*
D26*
X239350000Y-121080452D03*
D25*
X244850000Y-121080452D03*
D24*
X234350000Y-124880452D03*
X239350000Y-126980452D03*
%TD*%
D25*
%TO.C,S13*%
X212350000Y-121080452D03*
D26*
X217850000Y-121080452D03*
D25*
X223350000Y-121080452D03*
D24*
X212850000Y-124880452D03*
X217850000Y-126980452D03*
%TD*%
D25*
%TO.C,S12*%
X190850000Y-121080452D03*
D26*
X196350000Y-121080452D03*
D25*
X201850000Y-121080452D03*
D24*
X191350000Y-124880452D03*
X196350000Y-126980452D03*
%TD*%
D25*
%TO.C,S11*%
X169350000Y-121080452D03*
D26*
X174850000Y-121080452D03*
D25*
X180350000Y-121080452D03*
D24*
X169850000Y-124880452D03*
X174850000Y-126980452D03*
%TD*%
D25*
%TO.C,S10*%
X147850000Y-121080452D03*
D26*
X153350000Y-121080452D03*
D25*
X158850000Y-121080452D03*
D24*
X148350000Y-124880452D03*
X153350000Y-126980452D03*
%TD*%
D25*
%TO.C,S9*%
X126350000Y-121080452D03*
D26*
X131850000Y-121080452D03*
D25*
X137350000Y-121080452D03*
D24*
X126850000Y-124880452D03*
X131850000Y-126980452D03*
%TD*%
D25*
%TO.C,S8*%
X72600000Y-139700000D03*
D26*
X78100000Y-139700000D03*
D25*
X83600000Y-139700000D03*
D24*
X73100000Y-143500000D03*
X78100000Y-145600000D03*
%TD*%
D25*
%TO.C,S7*%
X51100000Y-139700000D03*
D26*
X56600000Y-139700000D03*
D25*
X62100000Y-139700000D03*
D24*
X51600000Y-143500000D03*
X56600000Y-145600000D03*
%TD*%
D25*
%TO.C,S6*%
X83350000Y-121080452D03*
D26*
X88850000Y-121080452D03*
D25*
X94350000Y-121080452D03*
D24*
X83850000Y-124880452D03*
X88850000Y-126980452D03*
%TD*%
D25*
%TO.C,S5*%
X61850000Y-121080452D03*
D26*
X67350000Y-121080452D03*
D25*
X72850000Y-121080452D03*
D24*
X62350000Y-124880452D03*
X67350000Y-126980452D03*
%TD*%
D25*
%TO.C,S4*%
X72600000Y-102460904D03*
D26*
X78100000Y-102460904D03*
D25*
X83600000Y-102460904D03*
D24*
X73100000Y-106260904D03*
X78100000Y-108360904D03*
%TD*%
D25*
%TO.C,S3*%
X51100000Y-102460904D03*
D26*
X56600000Y-102460904D03*
D25*
X62100000Y-102460904D03*
D24*
X51600000Y-106260904D03*
X56600000Y-108360904D03*
%TD*%
D25*
%TO.C,S2*%
X83350000Y-83841356D03*
D26*
X88850000Y-83841356D03*
D25*
X94350000Y-83841356D03*
D24*
X83850000Y-87641356D03*
X88850000Y-89741356D03*
%TD*%
D25*
%TO.C,S1*%
X61850000Y-83841356D03*
D26*
X67350000Y-83841356D03*
D25*
X72850000Y-83841356D03*
D24*
X62350000Y-87641356D03*
X67350000Y-89741356D03*
%TD*%
D27*
%TO.C,J1*%
X209375000Y-105820000D03*
X209375000Y-103280000D03*
X209375000Y-100740000D03*
D28*
X209375000Y-98200000D03*
%TD*%
M02*
