%TF.GenerationSoftware,KiCad,Pcbnew,8.0.5*%
%TF.CreationDate,2024-11-29T19:22:44+02:00*%
%TF.ProjectId,harmi,6861726d-692e-46b6-9963-61645f706362,rev?*%
%TF.SameCoordinates,Original*%
%TF.FileFunction,Profile,NP*%
%FSLAX46Y46*%
G04 Gerber Fmt 4.6, Leading zero omitted, Abs format (unit mm)*
G04 Created by KiCad (PCBNEW 8.0.5) date 2024-11-29 19:22:44*
%MOMM*%
%LPD*%
G01*
G04 APERTURE LIST*
%TA.AperFunction,Profile*%
%ADD10C,0.050000*%
%TD*%
%TA.AperFunction,Profile*%
%ADD11C,0.120000*%
%TD*%
G04 APERTURE END LIST*
D10*
X41000000Y-71000000D02*
G75*
G02*
X43000000Y-69000000I2000000J0D01*
G01*
X43000000Y-154000000D02*
G75*
G02*
X41000000Y-152000000I0J2000000D01*
G01*
X255000000Y-152000000D02*
G75*
G02*
X253000000Y-154000000I-2000000J0D01*
G01*
X253000000Y-69000000D02*
G75*
G02*
X255000000Y-71000000I0J-2000000D01*
G01*
X255000000Y-152000000D02*
X255000000Y-71000000D01*
X43000000Y-154000000D02*
X253000000Y-154000000D01*
X253000000Y-69000000D02*
X43000000Y-69000000D01*
X41000000Y-71000000D02*
X41000000Y-152000000D01*
%TO.C,REF\u002A\u002A*%
X101500000Y-76500000D02*
X105000000Y-76500000D01*
X101500000Y-100500000D02*
X101500000Y-76500000D01*
X105000000Y-100500000D02*
X101500000Y-100500000D01*
X108500000Y-69000000D02*
X108500000Y-73000000D01*
X108500000Y-69000000D02*
X176500000Y-69000000D01*
X108500000Y-104000000D02*
X108500000Y-107500000D01*
X176500000Y-73000000D02*
X176500000Y-69000000D01*
X176500000Y-104000000D02*
X176500000Y-107500000D01*
X176500000Y-107500000D02*
X108500000Y-107500000D01*
X180000000Y-76500000D02*
X183500000Y-76500000D01*
X183500000Y-76500000D02*
X183500000Y-100500000D01*
X183500000Y-100500000D02*
X180000000Y-100500000D01*
X105000000Y-100500000D02*
G75*
G02*
X108500000Y-104000000I1J-3499999D01*
G01*
X108500000Y-73000000D02*
G75*
G02*
X105000000Y-76500000I-3499999J-1D01*
G01*
X176500000Y-104000000D02*
G75*
G02*
X180000000Y-100500000I3500000J0D01*
G01*
X180000000Y-76500000D02*
G75*
G02*
X176500000Y-73000000I0J3500000D01*
G01*
%TO.C,RGB20*%
D11*
X226900000Y-136500000D02*
X230300000Y-136500000D01*
X230300000Y-133500000D01*
X226900000Y-133500000D01*
X226900000Y-136500000D01*
%TO.C,RGB19*%
X205650000Y-136500000D02*
X209050000Y-136500000D01*
X209050000Y-133500000D01*
X205650000Y-133500000D01*
X205650000Y-136500000D01*
%TO.C,RGB18*%
X183900000Y-136500000D02*
X187300000Y-136500000D01*
X187300000Y-133500000D01*
X183900000Y-133500000D01*
X183900000Y-136500000D01*
%TO.C,RGB17*%
X162400000Y-136500000D02*
X165800000Y-136500000D01*
X165800000Y-133500000D01*
X162400000Y-133500000D01*
X162400000Y-136500000D01*
%TO.C,RGB16*%
X140900000Y-136500000D02*
X144300000Y-136500000D01*
X144300000Y-133500000D01*
X140900000Y-133500000D01*
X140900000Y-136500000D01*
%TO.C,RGB15*%
X119400000Y-136500000D02*
X122800000Y-136500000D01*
X122800000Y-133500000D01*
X119400000Y-133500000D01*
X119400000Y-136500000D01*
%TO.C,RGB14*%
X237650000Y-117880452D02*
X241050000Y-117880452D01*
X241050000Y-114880452D01*
X237650000Y-114880452D01*
X237650000Y-117880452D01*
%TO.C,RGB13*%
X216150000Y-117880452D02*
X219550000Y-117880452D01*
X219550000Y-114880452D01*
X216150000Y-114880452D01*
X216150000Y-117880452D01*
%TO.C,RGB12*%
X194650000Y-117880452D02*
X198050000Y-117880452D01*
X198050000Y-114880452D01*
X194650000Y-114880452D01*
X194650000Y-117880452D01*
%TO.C,RGB11*%
X173150000Y-117880452D02*
X176550000Y-117880452D01*
X176550000Y-114880452D01*
X173150000Y-114880452D01*
X173150000Y-117880452D01*
%TO.C,RGB10*%
X151650000Y-117880452D02*
X155050000Y-117880452D01*
X155050000Y-114880452D01*
X151650000Y-114880452D01*
X151650000Y-117880452D01*
%TO.C,RGB9*%
X130150000Y-117880452D02*
X133550000Y-117880452D01*
X133550000Y-114880452D01*
X130150000Y-114880452D01*
X130150000Y-117880452D01*
%TO.C,RGB8*%
X76400000Y-136500000D02*
X79800000Y-136500000D01*
X79800000Y-133500000D01*
X76400000Y-133500000D01*
X76400000Y-136500000D01*
%TO.C,RGB7*%
X54900000Y-136500000D02*
X58300000Y-136500000D01*
X58300000Y-133500000D01*
X54900000Y-133500000D01*
X54900000Y-136500000D01*
%TO.C,RGB6*%
X87150000Y-117880452D02*
X90550000Y-117880452D01*
X90550000Y-114880452D01*
X87150000Y-114880452D01*
X87150000Y-117880452D01*
%TO.C,RGB5*%
X65650000Y-117880452D02*
X69050000Y-117880452D01*
X69050000Y-114880452D01*
X65650000Y-114880452D01*
X65650000Y-117880452D01*
%TO.C,RGB4*%
X76400000Y-99260904D02*
X79800000Y-99260904D01*
X79800000Y-96260904D01*
X76400000Y-96260904D01*
X76400000Y-99260904D01*
%TO.C,RGB3*%
X54900000Y-99260904D02*
X58300000Y-99260904D01*
X58300000Y-96260904D01*
X54900000Y-96260904D01*
X54900000Y-99260904D01*
%TO.C,RGB2*%
X87150000Y-80641356D02*
X90550000Y-80641356D01*
X90550000Y-77641356D01*
X87150000Y-77641356D01*
X87150000Y-80641356D01*
%TO.C,RGB1*%
X65650000Y-80641356D02*
X69050000Y-80641356D01*
X69050000Y-77641356D01*
X65650000Y-77641356D01*
X65650000Y-80641356D01*
%TO.C,U1*%
X199740000Y-68870000D02*
X199740000Y-89510000D01*
X211740000Y-89510000D02*
X211740000Y-68870000D01*
X199740000Y-89510000D02*
X211740000Y-89510000D01*
%TD*%
M02*
