M48
; DRILL file {KiCad 8.0.5} date 2024-11-29T19:22:42+0200
; FORMAT={-:-/ absolute / inch / decimal}
; #@! TF.CreationDate,2024-11-29T19:22:42+02:00
; #@! TF.GenerationSoftware,Kicad,Pcbnew,8.0.5
; #@! TF.FileFunction,Plated,1,2,PTH
FMAT,2
INCH
; #@! TA.AperFunction,Plated,PTH,ComponentDrill
T1C0.0354
; #@! TA.AperFunction,Plated,PTH,ComponentDrill
T2C0.0394
; #@! TA.AperFunction,Plated,PTH,ComponentDrill
T3C0.0472
; #@! TA.AperFunction,Plated,PTH,ComponentDrill
T4C0.0787
%
G90
G05
T2
X2.6516Y-3.8804
X2.6516Y-4.1874
X2.6516Y-5.3465
X2.6516Y-5.6535
X3.0748Y-3.1473
X3.0748Y-3.4544
X3.0748Y-4.6134
X3.0748Y-4.9205
X3.498Y-3.8804
X3.498Y-4.1874
X3.498Y-5.3465
X3.498Y-5.6535
X3.9213Y-3.1473
X3.9213Y-3.4544
X3.9213Y-4.6134
X3.9213Y-4.9205
X5.1909Y-5.3465
X5.1909Y-5.6535
X5.6142Y-4.6134
X5.6142Y-4.9205
X6.0374Y-5.3465
X6.0374Y-5.6535
X6.4606Y-4.6134
X6.4606Y-4.9205
X6.8839Y-5.3465
X6.8839Y-5.6535
X7.3071Y-4.6134
X7.3071Y-4.9205
X7.3228Y-2.8524
X7.3228Y-3.1594
X7.7303Y-5.3465
X7.7303Y-5.6535
X7.8Y-2.774
X7.8Y-2.874
X7.8Y-2.974
X7.8Y-3.074
X7.8Y-3.174
X7.8Y-3.274
X7.8Y-3.374
X7.8Y-3.474
X7.8Y-3.574
X7.9Y-3.574
X8.0Y-3.574
X8.1Y-3.574
X8.1535Y-4.6134
X8.1535Y-4.9205
X8.2Y-3.574
X8.2431Y-3.8661
X8.2431Y-3.9661
X8.2431Y-4.0661
X8.2431Y-4.1661
X8.3Y-3.574
X8.4Y-2.774
X8.4Y-2.874
X8.4Y-2.974
X8.4Y-3.074
X8.4Y-3.174
X8.4Y-3.274
X8.4Y-3.374
X8.4Y-3.474
X8.4Y-3.574
X8.5768Y-5.3465
X8.5768Y-5.6535
X8.9047Y-3.4016
X8.9047Y-3.5
X8.9047Y-3.5984
X9.0Y-4.6134
X9.0Y-4.9205
X9.4232Y-5.3465
X9.4232Y-5.6535
X9.8465Y-4.6134
X9.8465Y-4.9205
T3
X2.0315Y-4.1835
X2.0315Y-5.6496
X2.2283Y-4.2662
X2.2283Y-5.7323
X2.4547Y-3.4504
X2.4547Y-4.9166
X2.6516Y-3.5331
X2.6516Y-4.9992
X2.878Y-4.1835
X2.878Y-5.6496
X3.0748Y-4.2662
X3.0748Y-5.7323
X3.3012Y-3.4504
X3.3012Y-4.9166
X3.498Y-3.5331
X3.498Y-4.9992
X4.5709Y-5.6496
X4.7677Y-5.7323
X4.9941Y-4.9166
X5.1909Y-4.9992
X5.4173Y-5.6496
X5.6142Y-5.7323
X5.8406Y-4.9166
X6.0374Y-4.9992
X6.2638Y-5.6496
X6.4606Y-5.7323
X6.687Y-4.9166
X6.8839Y-4.9992
X7.1102Y-5.6496
X7.3071Y-5.7323
X7.5335Y-4.9166
X7.7303Y-4.9992
X7.9567Y-5.6496
X8.1535Y-5.7323
X8.3799Y-4.9166
X8.5768Y-4.9992
X8.8031Y-5.6496
X9.0Y-5.7323
X9.2264Y-4.9166
X9.4232Y-4.9992
T1
G00X7.4291Y-3.2279
M15
G01X7.4291Y-3.2436
M16
G05
G00X7.6102Y-2.909
M15
G01X7.6102Y-2.9247
M16
G05
G00X7.6102Y-3.0271
M15
G01X7.6102Y-3.0428
M16
G05
G00X7.6102Y-3.1845
M15
G01X7.6102Y-3.2003
M16
G05
T4
G00X9.1783Y-3.2795
M15
G01X9.2217Y-3.2795
M16
G05
G00X9.1783Y-3.7205
M15
G01X9.2217Y-3.7205
M16
G05
M30
