%TF.GenerationSoftware,KiCad,Pcbnew,8.0.5*%
%TF.CreationDate,2024-11-29T19:22:44+02:00*%
%TF.ProjectId,harmi,6861726d-692e-46b6-9963-61645f706362,rev?*%
%TF.SameCoordinates,Original*%
%TF.FileFunction,Paste,Bot*%
%TF.FilePolarity,Positive*%
%FSLAX46Y46*%
G04 Gerber Fmt 4.6, Leading zero omitted, Abs format (unit mm)*
G04 Created by KiCad (PCBNEW 8.0.5) date 2024-11-29 19:22:44*
%MOMM*%
%LPD*%
G01*
G04 APERTURE LIST*
G04 Aperture macros list*
%AMOutline5P*
0 Free polygon, 5 corners , with rotation*
0 The origin of the aperture is its center*
0 number of corners: always 5*
0 $1 to $10 corner X, Y*
0 $11 Rotation angle, in degrees counterclockwise*
0 create outline with 5 corners*
4,1,5,$1,$2,$3,$4,$5,$6,$7,$8,$9,$10,$1,$2,$11*%
%AMOutline6P*
0 Free polygon, 6 corners , with rotation*
0 The origin of the aperture is its center*
0 number of corners: always 6*
0 $1 to $12 corner X, Y*
0 $13 Rotation angle, in degrees counterclockwise*
0 create outline with 6 corners*
4,1,6,$1,$2,$3,$4,$5,$6,$7,$8,$9,$10,$11,$12,$1,$2,$13*%
%AMOutline7P*
0 Free polygon, 7 corners , with rotation*
0 The origin of the aperture is its center*
0 number of corners: always 7*
0 $1 to $14 corner X, Y*
0 $15 Rotation angle, in degrees counterclockwise*
0 create outline with 7 corners*
4,1,7,$1,$2,$3,$4,$5,$6,$7,$8,$9,$10,$11,$12,$13,$14,$1,$2,$15*%
%AMOutline8P*
0 Free polygon, 8 corners , with rotation*
0 The origin of the aperture is its center*
0 number of corners: always 8*
0 $1 to $16 corner X, Y*
0 $17 Rotation angle, in degrees counterclockwise*
0 create outline with 8 corners*
4,1,8,$1,$2,$3,$4,$5,$6,$7,$8,$9,$10,$11,$12,$13,$14,$15,$16,$1,$2,$17*%
G04 Aperture macros list end*
%ADD10R,1.200000X1.500000*%
%ADD11R,1.200000X1.600000*%
%ADD12R,1.800000X0.820000*%
%ADD13Outline5P,-0.900000X0.139400X-0.629400X0.410000X0.900000X0.410000X0.900000X-0.410000X-0.900000X-0.410000X0.000000*%
G04 APERTURE END LIST*
D10*
%TO.C,R1*%
X186000000Y-75000000D03*
X186000000Y-77700000D03*
%TD*%
D11*
%TO.C,D20*%
X239350000Y-138300000D03*
X239350000Y-141100000D03*
%TD*%
%TO.C,D19*%
X217850000Y-138300000D03*
X217850000Y-141100000D03*
%TD*%
%TO.C,D18*%
X196350000Y-138300000D03*
X196350000Y-141100000D03*
%TD*%
%TO.C,D17*%
X174850000Y-138300000D03*
X174850000Y-141100000D03*
%TD*%
%TO.C,D16*%
X153350000Y-138300000D03*
X153350000Y-141100000D03*
%TD*%
%TO.C,D15*%
X131850000Y-138300000D03*
X131850000Y-141100000D03*
%TD*%
%TO.C,D14*%
X250100000Y-119680452D03*
X250100000Y-122480452D03*
%TD*%
%TO.C,D13*%
X228600000Y-122480452D03*
X228600000Y-119680452D03*
%TD*%
%TO.C,D12*%
X207100000Y-119680452D03*
X207100000Y-122480452D03*
%TD*%
%TO.C,D11*%
X185600000Y-119680452D03*
X185600000Y-122480452D03*
%TD*%
%TO.C,D10*%
X164100000Y-119680452D03*
X164100000Y-122480452D03*
%TD*%
%TO.C,D9*%
X142600000Y-119680452D03*
X142600000Y-122480452D03*
%TD*%
%TO.C,D8*%
X88850000Y-138300000D03*
X88850000Y-141100000D03*
%TD*%
%TO.C,D7*%
X67350000Y-138300000D03*
X67350000Y-141100000D03*
%TD*%
%TO.C,D6*%
X99600000Y-119680452D03*
X99600000Y-122480452D03*
%TD*%
%TO.C,D5*%
X78100000Y-119680452D03*
X78100000Y-122480452D03*
%TD*%
%TO.C,D4*%
X88850000Y-101060904D03*
X88850000Y-103860904D03*
%TD*%
%TO.C,D3*%
X67350000Y-101060904D03*
X67350000Y-103860904D03*
%TD*%
%TO.C,D2*%
X99600000Y-82441356D03*
X99600000Y-85241356D03*
%TD*%
%TO.C,D1*%
X78100000Y-82441356D03*
X78100000Y-85241356D03*
%TD*%
D12*
%TO.C,RGB20*%
X231200000Y-135750000D03*
X231200000Y-134250000D03*
D13*
X226000000Y-134250000D03*
D12*
X226000000Y-135750000D03*
%TD*%
%TO.C,RGB19*%
X209950000Y-135750000D03*
X209950000Y-134250000D03*
D13*
X204750000Y-134250000D03*
D12*
X204750000Y-135750000D03*
%TD*%
%TO.C,RGB18*%
X188200000Y-135750000D03*
X188200000Y-134250000D03*
D13*
X183000000Y-134250000D03*
D12*
X183000000Y-135750000D03*
%TD*%
%TO.C,RGB17*%
X166700000Y-135750000D03*
X166700000Y-134250000D03*
D13*
X161500000Y-134250000D03*
D12*
X161500000Y-135750000D03*
%TD*%
%TO.C,RGB16*%
X145200000Y-135750000D03*
X145200000Y-134250000D03*
D13*
X140000000Y-134250000D03*
D12*
X140000000Y-135750000D03*
%TD*%
%TO.C,RGB15*%
X123700000Y-135750000D03*
X123700000Y-134250000D03*
D13*
X118500000Y-134250000D03*
D12*
X118500000Y-135750000D03*
%TD*%
%TO.C,RGB14*%
X241950000Y-117130452D03*
X241950000Y-115630452D03*
D13*
X236750000Y-115630452D03*
D12*
X236750000Y-117130452D03*
%TD*%
%TO.C,RGB13*%
X220450000Y-117130452D03*
X220450000Y-115630452D03*
D13*
X215250000Y-115630452D03*
D12*
X215250000Y-117130452D03*
%TD*%
%TO.C,RGB12*%
X198950000Y-117130452D03*
X198950000Y-115630452D03*
D13*
X193750000Y-115630452D03*
D12*
X193750000Y-117130452D03*
%TD*%
%TO.C,RGB11*%
X177450000Y-117130452D03*
X177450000Y-115630452D03*
D13*
X172250000Y-115630452D03*
D12*
X172250000Y-117130452D03*
%TD*%
%TO.C,RGB10*%
X155950000Y-117130452D03*
X155950000Y-115630452D03*
D13*
X150750000Y-115630452D03*
D12*
X150750000Y-117130452D03*
%TD*%
%TO.C,RGB9*%
X134450000Y-117130452D03*
X134450000Y-115630452D03*
D13*
X129250000Y-115630452D03*
D12*
X129250000Y-117130452D03*
%TD*%
%TO.C,RGB8*%
X80700000Y-135750000D03*
X80700000Y-134250000D03*
D13*
X75500000Y-134250000D03*
D12*
X75500000Y-135750000D03*
%TD*%
%TO.C,RGB7*%
X59200000Y-135750000D03*
X59200000Y-134250000D03*
D13*
X54000000Y-134250000D03*
D12*
X54000000Y-135750000D03*
%TD*%
%TO.C,RGB6*%
X91450000Y-117130452D03*
X91450000Y-115630452D03*
D13*
X86250000Y-115630452D03*
D12*
X86250000Y-117130452D03*
%TD*%
%TO.C,RGB5*%
X69950000Y-117130452D03*
X69950000Y-115630452D03*
D13*
X64750000Y-115630452D03*
D12*
X64750000Y-117130452D03*
%TD*%
%TO.C,RGB4*%
X80700000Y-98510904D03*
X80700000Y-97010904D03*
D13*
X75500000Y-97010904D03*
D12*
X75500000Y-98510904D03*
%TD*%
%TO.C,RGB3*%
X59200000Y-98510904D03*
X59200000Y-97010904D03*
D13*
X54000000Y-97010904D03*
D12*
X54000000Y-98510904D03*
%TD*%
%TO.C,RGB2*%
X91450000Y-79891356D03*
X91450000Y-78391356D03*
D13*
X86250000Y-78391356D03*
D12*
X86250000Y-79891356D03*
%TD*%
%TO.C,RGB1*%
X64750000Y-79891356D03*
D13*
X64750000Y-78391356D03*
D12*
X69950000Y-78391356D03*
X69950000Y-79891356D03*
%TD*%
M02*
