%TF.GenerationSoftware,KiCad,Pcbnew,8.0.5*%
%TF.CreationDate,2024-11-29T19:22:44+02:00*%
%TF.ProjectId,harmi,6861726d-692e-46b6-9963-61645f706362,rev?*%
%TF.SameCoordinates,Original*%
%TF.FileFunction,Legend,Top*%
%TF.FilePolarity,Positive*%
%FSLAX46Y46*%
G04 Gerber Fmt 4.6, Leading zero omitted, Abs format (unit mm)*
G04 Created by KiCad (PCBNEW 8.0.5) date 2024-11-29 19:22:44*
%MOMM*%
%LPD*%
G01*
G04 APERTURE LIST*
%ADD10C,0.100000*%
%ADD11C,0.150000*%
%ADD12C,0.120000*%
%ADD13C,1.600000*%
%ADD14R,1.600000X1.600000*%
G04 APERTURE END LIST*
D10*
X141166666Y-86957419D02*
X140833333Y-86481228D01*
X140595238Y-86957419D02*
X140595238Y-85957419D01*
X140595238Y-85957419D02*
X140976190Y-85957419D01*
X140976190Y-85957419D02*
X141071428Y-86005038D01*
X141071428Y-86005038D02*
X141119047Y-86052657D01*
X141119047Y-86052657D02*
X141166666Y-86147895D01*
X141166666Y-86147895D02*
X141166666Y-86290752D01*
X141166666Y-86290752D02*
X141119047Y-86385990D01*
X141119047Y-86385990D02*
X141071428Y-86433609D01*
X141071428Y-86433609D02*
X140976190Y-86481228D01*
X140976190Y-86481228D02*
X140595238Y-86481228D01*
X141595238Y-86433609D02*
X141928571Y-86433609D01*
X142071428Y-86957419D02*
X141595238Y-86957419D01*
X141595238Y-86957419D02*
X141595238Y-85957419D01*
X141595238Y-85957419D02*
X142071428Y-85957419D01*
X142833333Y-86433609D02*
X142500000Y-86433609D01*
X142500000Y-86957419D02*
X142500000Y-85957419D01*
X142500000Y-85957419D02*
X142976190Y-85957419D01*
X143500000Y-85957419D02*
X143500000Y-86195514D01*
X143261905Y-86100276D02*
X143500000Y-86195514D01*
X143500000Y-86195514D02*
X143738095Y-86100276D01*
X143357143Y-86385990D02*
X143500000Y-86195514D01*
X143500000Y-86195514D02*
X143642857Y-86385990D01*
X144261905Y-85957419D02*
X144261905Y-86195514D01*
X144023810Y-86100276D02*
X144261905Y-86195514D01*
X144261905Y-86195514D02*
X144500000Y-86100276D01*
X144119048Y-86385990D02*
X144261905Y-86195514D01*
X144261905Y-86195514D02*
X144404762Y-86385990D01*
D11*
X249666666Y-69254819D02*
X249333333Y-68778628D01*
X249095238Y-69254819D02*
X249095238Y-68254819D01*
X249095238Y-68254819D02*
X249476190Y-68254819D01*
X249476190Y-68254819D02*
X249571428Y-68302438D01*
X249571428Y-68302438D02*
X249619047Y-68350057D01*
X249619047Y-68350057D02*
X249666666Y-68445295D01*
X249666666Y-68445295D02*
X249666666Y-68588152D01*
X249666666Y-68588152D02*
X249619047Y-68683390D01*
X249619047Y-68683390D02*
X249571428Y-68731009D01*
X249571428Y-68731009D02*
X249476190Y-68778628D01*
X249476190Y-68778628D02*
X249095238Y-68778628D01*
X250095238Y-68731009D02*
X250428571Y-68731009D01*
X250571428Y-69254819D02*
X250095238Y-69254819D01*
X250095238Y-69254819D02*
X250095238Y-68254819D01*
X250095238Y-68254819D02*
X250571428Y-68254819D01*
X251333333Y-68731009D02*
X251000000Y-68731009D01*
X251000000Y-69254819D02*
X251000000Y-68254819D01*
X251000000Y-68254819D02*
X251476190Y-68254819D01*
X252000000Y-68254819D02*
X252000000Y-68492914D01*
X251761905Y-68397676D02*
X252000000Y-68492914D01*
X252000000Y-68492914D02*
X252238095Y-68397676D01*
X251857143Y-68683390D02*
X252000000Y-68492914D01*
X252000000Y-68492914D02*
X252142857Y-68683390D01*
X252761905Y-68254819D02*
X252761905Y-68492914D01*
X252523810Y-68397676D02*
X252761905Y-68492914D01*
X252761905Y-68492914D02*
X253000000Y-68397676D01*
X252619048Y-68683390D02*
X252761905Y-68492914D01*
X252761905Y-68492914D02*
X252904762Y-68683390D01*
X249666666Y-146254819D02*
X249333333Y-145778628D01*
X249095238Y-146254819D02*
X249095238Y-145254819D01*
X249095238Y-145254819D02*
X249476190Y-145254819D01*
X249476190Y-145254819D02*
X249571428Y-145302438D01*
X249571428Y-145302438D02*
X249619047Y-145350057D01*
X249619047Y-145350057D02*
X249666666Y-145445295D01*
X249666666Y-145445295D02*
X249666666Y-145588152D01*
X249666666Y-145588152D02*
X249619047Y-145683390D01*
X249619047Y-145683390D02*
X249571428Y-145731009D01*
X249571428Y-145731009D02*
X249476190Y-145778628D01*
X249476190Y-145778628D02*
X249095238Y-145778628D01*
X250095238Y-145731009D02*
X250428571Y-145731009D01*
X250571428Y-146254819D02*
X250095238Y-146254819D01*
X250095238Y-146254819D02*
X250095238Y-145254819D01*
X250095238Y-145254819D02*
X250571428Y-145254819D01*
X251333333Y-145731009D02*
X251000000Y-145731009D01*
X251000000Y-146254819D02*
X251000000Y-145254819D01*
X251000000Y-145254819D02*
X251476190Y-145254819D01*
X252000000Y-145254819D02*
X252000000Y-145492914D01*
X251761905Y-145397676D02*
X252000000Y-145492914D01*
X252000000Y-145492914D02*
X252238095Y-145397676D01*
X251857143Y-145683390D02*
X252000000Y-145492914D01*
X252000000Y-145492914D02*
X252142857Y-145683390D01*
X252761905Y-145254819D02*
X252761905Y-145492914D01*
X252523810Y-145397676D02*
X252761905Y-145492914D01*
X252761905Y-145492914D02*
X253000000Y-145397676D01*
X252619048Y-145683390D02*
X252761905Y-145492914D01*
X252761905Y-145492914D02*
X252904762Y-145683390D01*
X43666666Y-146254819D02*
X43333333Y-145778628D01*
X43095238Y-146254819D02*
X43095238Y-145254819D01*
X43095238Y-145254819D02*
X43476190Y-145254819D01*
X43476190Y-145254819D02*
X43571428Y-145302438D01*
X43571428Y-145302438D02*
X43619047Y-145350057D01*
X43619047Y-145350057D02*
X43666666Y-145445295D01*
X43666666Y-145445295D02*
X43666666Y-145588152D01*
X43666666Y-145588152D02*
X43619047Y-145683390D01*
X43619047Y-145683390D02*
X43571428Y-145731009D01*
X43571428Y-145731009D02*
X43476190Y-145778628D01*
X43476190Y-145778628D02*
X43095238Y-145778628D01*
X44095238Y-145731009D02*
X44428571Y-145731009D01*
X44571428Y-146254819D02*
X44095238Y-146254819D01*
X44095238Y-146254819D02*
X44095238Y-145254819D01*
X44095238Y-145254819D02*
X44571428Y-145254819D01*
X45333333Y-145731009D02*
X45000000Y-145731009D01*
X45000000Y-146254819D02*
X45000000Y-145254819D01*
X45000000Y-145254819D02*
X45476190Y-145254819D01*
X46000000Y-145254819D02*
X46000000Y-145492914D01*
X45761905Y-145397676D02*
X46000000Y-145492914D01*
X46000000Y-145492914D02*
X46238095Y-145397676D01*
X45857143Y-145683390D02*
X46000000Y-145492914D01*
X46000000Y-145492914D02*
X46142857Y-145683390D01*
X46761905Y-145254819D02*
X46761905Y-145492914D01*
X46523810Y-145397676D02*
X46761905Y-145492914D01*
X46761905Y-145492914D02*
X47000000Y-145397676D01*
X46619048Y-145683390D02*
X46761905Y-145492914D01*
X46761905Y-145492914D02*
X46904762Y-145683390D01*
X43666666Y-69254819D02*
X43333333Y-68778628D01*
X43095238Y-69254819D02*
X43095238Y-68254819D01*
X43095238Y-68254819D02*
X43476190Y-68254819D01*
X43476190Y-68254819D02*
X43571428Y-68302438D01*
X43571428Y-68302438D02*
X43619047Y-68350057D01*
X43619047Y-68350057D02*
X43666666Y-68445295D01*
X43666666Y-68445295D02*
X43666666Y-68588152D01*
X43666666Y-68588152D02*
X43619047Y-68683390D01*
X43619047Y-68683390D02*
X43571428Y-68731009D01*
X43571428Y-68731009D02*
X43476190Y-68778628D01*
X43476190Y-68778628D02*
X43095238Y-68778628D01*
X44095238Y-68731009D02*
X44428571Y-68731009D01*
X44571428Y-69254819D02*
X44095238Y-69254819D01*
X44095238Y-69254819D02*
X44095238Y-68254819D01*
X44095238Y-68254819D02*
X44571428Y-68254819D01*
X45333333Y-68731009D02*
X45000000Y-68731009D01*
X45000000Y-69254819D02*
X45000000Y-68254819D01*
X45000000Y-68254819D02*
X45476190Y-68254819D01*
X46000000Y-68254819D02*
X46000000Y-68492914D01*
X45761905Y-68397676D02*
X46000000Y-68492914D01*
X46000000Y-68492914D02*
X46238095Y-68397676D01*
X45857143Y-68683390D02*
X46000000Y-68492914D01*
X46000000Y-68492914D02*
X46142857Y-68683390D01*
X46761905Y-68254819D02*
X46761905Y-68492914D01*
X46523810Y-68397676D02*
X46761905Y-68492914D01*
X46761905Y-68492914D02*
X47000000Y-68397676D01*
X46619048Y-68683390D02*
X46761905Y-68492914D01*
X46761905Y-68492914D02*
X46904762Y-68683390D01*
X227941905Y-82057200D02*
X228084762Y-82104819D01*
X228084762Y-82104819D02*
X228322857Y-82104819D01*
X228322857Y-82104819D02*
X228418095Y-82057200D01*
X228418095Y-82057200D02*
X228465714Y-82009580D01*
X228465714Y-82009580D02*
X228513333Y-81914342D01*
X228513333Y-81914342D02*
X228513333Y-81819104D01*
X228513333Y-81819104D02*
X228465714Y-81723866D01*
X228465714Y-81723866D02*
X228418095Y-81676247D01*
X228418095Y-81676247D02*
X228322857Y-81628628D01*
X228322857Y-81628628D02*
X228132381Y-81581009D01*
X228132381Y-81581009D02*
X228037143Y-81533390D01*
X228037143Y-81533390D02*
X227989524Y-81485771D01*
X227989524Y-81485771D02*
X227941905Y-81390533D01*
X227941905Y-81390533D02*
X227941905Y-81295295D01*
X227941905Y-81295295D02*
X227989524Y-81200057D01*
X227989524Y-81200057D02*
X228037143Y-81152438D01*
X228037143Y-81152438D02*
X228132381Y-81104819D01*
X228132381Y-81104819D02*
X228370476Y-81104819D01*
X228370476Y-81104819D02*
X228513333Y-81152438D01*
X228894286Y-81200057D02*
X228941905Y-81152438D01*
X228941905Y-81152438D02*
X229037143Y-81104819D01*
X229037143Y-81104819D02*
X229275238Y-81104819D01*
X229275238Y-81104819D02*
X229370476Y-81152438D01*
X229370476Y-81152438D02*
X229418095Y-81200057D01*
X229418095Y-81200057D02*
X229465714Y-81295295D01*
X229465714Y-81295295D02*
X229465714Y-81390533D01*
X229465714Y-81390533D02*
X229418095Y-81533390D01*
X229418095Y-81533390D02*
X228846667Y-82104819D01*
X228846667Y-82104819D02*
X229465714Y-82104819D01*
X230418095Y-82104819D02*
X229846667Y-82104819D01*
X230132381Y-82104819D02*
X230132381Y-81104819D01*
X230132381Y-81104819D02*
X230037143Y-81247676D01*
X230037143Y-81247676D02*
X229941905Y-81342914D01*
X229941905Y-81342914D02*
X229846667Y-81390533D01*
D10*
%TO.C,REF\u002A\u002A*%
X96500000Y-74500000D02*
X102500000Y-74500000D01*
X96500000Y-85500000D02*
X96500000Y-74500000D01*
X101500000Y-69500000D02*
X105000000Y-69500000D01*
X101500000Y-73000000D02*
X101500000Y-69500000D01*
X101500000Y-107500000D02*
X101500000Y-104000000D01*
X102500000Y-70500000D02*
X102500000Y-74500000D01*
X102500000Y-70500000D02*
X182500000Y-70500000D01*
X102500000Y-85500000D02*
X96500000Y-85500000D01*
X102500000Y-106500000D02*
X102500000Y-85500000D01*
X105000000Y-107500000D02*
X101500000Y-107500000D01*
X110500000Y-88500000D02*
X174500000Y-88500000D01*
X142500000Y-81500000D02*
X142500000Y-95500000D01*
X180000000Y-107500000D02*
X183500000Y-107500000D01*
X182500000Y-70500000D02*
X182500000Y-106500000D01*
X182500000Y-106500000D02*
X102500000Y-106500000D01*
X183500000Y-69500000D02*
X180000000Y-69500000D01*
X183500000Y-73000000D02*
X183500000Y-69500000D01*
X183500000Y-107500000D02*
X183500000Y-104000000D01*
X110500000Y-81500000D02*
X174500000Y-81500000D01*
X174500000Y-95500000D01*
X110500000Y-95500000D01*
X110500000Y-81500000D01*
%TO.C,S21*%
X249680000Y-88900000D02*
G75*
G02*
X217680000Y-88900000I-16000000J0D01*
G01*
X217680000Y-88900000D02*
G75*
G02*
X249680000Y-88900000I16000000J0D01*
G01*
D12*
X226870000Y-82590000D02*
X231480000Y-82590000D01*
X226870000Y-85350000D02*
X226870000Y-82590000D01*
X226870000Y-87450000D02*
X226870000Y-88050000D01*
X226870000Y-89750000D02*
X226870000Y-90550000D01*
X226870000Y-92250000D02*
X226870000Y-95210000D01*
X231480000Y-95210000D02*
X226870000Y-95210000D01*
X235880000Y-82600000D02*
X240490000Y-82600000D01*
X240490000Y-82600000D02*
X240490000Y-95210000D01*
X240490000Y-95210000D02*
X235880000Y-95210000D01*
D11*
%TO.C,J2*%
X194050000Y-70887500D02*
X187950000Y-70887500D01*
X194050000Y-82987500D02*
X187950000Y-82987500D01*
X194050000Y-70887500D02*
X194050000Y-82987500D01*
X187950000Y-70887500D02*
X187950000Y-82987500D01*
X193800000Y-70887500D02*
X193800000Y-68887500D01*
X188200000Y-70887500D02*
X188200000Y-68887500D01*
X193800000Y-68887500D02*
X188200000Y-68887500D01*
%TO.C,S20*%
X238275000Y-143553813D02*
G75*
G02*
X236774999Y-146151887I-3000000J3D01*
G01*
X236775000Y-133248111D02*
G75*
G02*
X238275011Y-135846187I-1500000J-2598089D01*
G01*
X230100000Y-150005701D02*
G75*
G02*
X227100001Y-150005702I-1500000J2598076D01*
G01*
X227100000Y-129394299D02*
G75*
G02*
X230099999Y-129394298I1500000J-2598076D01*
G01*
X220425000Y-146151889D02*
G75*
G02*
X218925000Y-143553813I1500001J2598077D01*
G01*
X218925001Y-135846187D02*
G75*
G02*
X220425001Y-133248111I3000001J-1D01*
G01*
X238274999Y-143553813D02*
X238274999Y-135846187D01*
X236775000Y-133248111D02*
X230099999Y-129394298D01*
X230100000Y-150005702D02*
X236775000Y-146151889D01*
X227100000Y-129394298D02*
X220425001Y-133248111D01*
X220425000Y-146151889D02*
X227100001Y-150005702D01*
X218925001Y-135846187D02*
X218925000Y-143553813D01*
%TO.C,S19*%
X197425001Y-135846187D02*
X197425000Y-143553813D01*
X198925000Y-146151889D02*
X205600001Y-150005702D01*
X205600000Y-129394298D02*
X198925001Y-133248111D01*
X208600000Y-150005702D02*
X215275000Y-146151889D01*
X215275000Y-133248111D02*
X208599999Y-129394298D01*
X216774999Y-143553813D02*
X216774999Y-135846187D01*
X197425001Y-135846187D02*
G75*
G02*
X198925001Y-133248111I3000001J-1D01*
G01*
X198925000Y-146151889D02*
G75*
G02*
X197425000Y-143553813I1500001J2598077D01*
G01*
X205600000Y-129394299D02*
G75*
G02*
X208599999Y-129394298I1500000J-2598076D01*
G01*
X208600000Y-150005701D02*
G75*
G02*
X205600001Y-150005702I-1500000J2598076D01*
G01*
X215275000Y-133248111D02*
G75*
G02*
X216775011Y-135846187I-1500000J-2598089D01*
G01*
X216775000Y-143553813D02*
G75*
G02*
X215274999Y-146151887I-3000000J3D01*
G01*
%TO.C,S18*%
X175925001Y-135846187D02*
X175925000Y-143553813D01*
X177425000Y-146151889D02*
X184100001Y-150005702D01*
X184100000Y-129394298D02*
X177425001Y-133248111D01*
X187100000Y-150005702D02*
X193775000Y-146151889D01*
X193775000Y-133248111D02*
X187099999Y-129394298D01*
X195274999Y-143553813D02*
X195274999Y-135846187D01*
X175925001Y-135846187D02*
G75*
G02*
X177425001Y-133248111I3000001J-1D01*
G01*
X177425000Y-146151889D02*
G75*
G02*
X175925000Y-143553813I1500001J2598077D01*
G01*
X184100000Y-129394299D02*
G75*
G02*
X187099999Y-129394298I1500000J-2598076D01*
G01*
X187100000Y-150005701D02*
G75*
G02*
X184100001Y-150005702I-1500000J2598076D01*
G01*
X193775000Y-133248111D02*
G75*
G02*
X195275011Y-135846187I-1500000J-2598089D01*
G01*
X195275000Y-143553813D02*
G75*
G02*
X193774999Y-146151887I-3000000J3D01*
G01*
%TO.C,S17*%
X154425001Y-135846187D02*
X154425000Y-143553813D01*
X155925000Y-146151889D02*
X162600001Y-150005702D01*
X162600000Y-129394298D02*
X155925001Y-133248111D01*
X165600000Y-150005702D02*
X172275000Y-146151889D01*
X172275000Y-133248111D02*
X165599999Y-129394298D01*
X173774999Y-143553813D02*
X173774999Y-135846187D01*
X154425001Y-135846187D02*
G75*
G02*
X155925001Y-133248111I3000001J-1D01*
G01*
X155925000Y-146151889D02*
G75*
G02*
X154425000Y-143553813I1500001J2598077D01*
G01*
X162600000Y-129394299D02*
G75*
G02*
X165599999Y-129394298I1500000J-2598076D01*
G01*
X165600000Y-150005701D02*
G75*
G02*
X162600001Y-150005702I-1500000J2598076D01*
G01*
X172275000Y-133248111D02*
G75*
G02*
X173775011Y-135846187I-1500000J-2598089D01*
G01*
X173775000Y-143553813D02*
G75*
G02*
X172274999Y-146151887I-3000000J3D01*
G01*
%TO.C,S16*%
X132925001Y-135846187D02*
X132925000Y-143553813D01*
X134425000Y-146151889D02*
X141100001Y-150005702D01*
X141100000Y-129394298D02*
X134425001Y-133248111D01*
X144100000Y-150005702D02*
X150775000Y-146151889D01*
X150775000Y-133248111D02*
X144099999Y-129394298D01*
X152274999Y-143553813D02*
X152274999Y-135846187D01*
X132925001Y-135846187D02*
G75*
G02*
X134425001Y-133248111I3000001J-1D01*
G01*
X134425000Y-146151889D02*
G75*
G02*
X132925000Y-143553813I1500001J2598077D01*
G01*
X141100000Y-129394299D02*
G75*
G02*
X144099999Y-129394298I1500000J-2598076D01*
G01*
X144100000Y-150005701D02*
G75*
G02*
X141100001Y-150005702I-1500000J2598076D01*
G01*
X150775000Y-133248111D02*
G75*
G02*
X152275011Y-135846187I-1500000J-2598089D01*
G01*
X152275000Y-143553813D02*
G75*
G02*
X150774999Y-146151887I-3000000J3D01*
G01*
%TO.C,S15*%
X111425001Y-135846187D02*
X111425000Y-143553813D01*
X112925000Y-146151889D02*
X119600001Y-150005702D01*
X119600000Y-129394298D02*
X112925001Y-133248111D01*
X122600000Y-150005702D02*
X129275000Y-146151889D01*
X129275000Y-133248111D02*
X122599999Y-129394298D01*
X130774999Y-143553813D02*
X130774999Y-135846187D01*
X111425001Y-135846187D02*
G75*
G02*
X112925001Y-133248111I3000001J-1D01*
G01*
X112925000Y-146151889D02*
G75*
G02*
X111425000Y-143553813I1500001J2598077D01*
G01*
X119600000Y-129394299D02*
G75*
G02*
X122599999Y-129394298I1500000J-2598076D01*
G01*
X122600000Y-150005701D02*
G75*
G02*
X119600001Y-150005702I-1500000J2598076D01*
G01*
X129275000Y-133248111D02*
G75*
G02*
X130775011Y-135846187I-1500000J-2598089D01*
G01*
X130775000Y-143553813D02*
G75*
G02*
X129274999Y-146151887I-3000000J3D01*
G01*
%TO.C,S14*%
X229675001Y-117226639D02*
X229675000Y-124934265D01*
X231175000Y-127532341D02*
X237850001Y-131386154D01*
X237850000Y-110774750D02*
X231175001Y-114628563D01*
X240850000Y-131386154D02*
X247525000Y-127532341D01*
X247525000Y-114628563D02*
X240849999Y-110774750D01*
X249024999Y-124934265D02*
X249024999Y-117226639D01*
X229675001Y-117226639D02*
G75*
G02*
X231175001Y-114628563I3000001J-1D01*
G01*
X231175000Y-127532341D02*
G75*
G02*
X229675000Y-124934265I1500001J2598077D01*
G01*
X237850000Y-110774751D02*
G75*
G02*
X240849999Y-110774750I1500000J-2598076D01*
G01*
X240850000Y-131386153D02*
G75*
G02*
X237850001Y-131386154I-1500000J2598076D01*
G01*
X247525000Y-114628563D02*
G75*
G02*
X249025011Y-117226639I-1500000J-2598089D01*
G01*
X249025000Y-124934265D02*
G75*
G02*
X247524999Y-127532339I-3000000J3D01*
G01*
%TO.C,S13*%
X208175001Y-117226639D02*
X208175000Y-124934265D01*
X209675000Y-127532341D02*
X216350001Y-131386154D01*
X216350000Y-110774750D02*
X209675001Y-114628563D01*
X219350000Y-131386154D02*
X226025000Y-127532341D01*
X226025000Y-114628563D02*
X219349999Y-110774750D01*
X227524999Y-124934265D02*
X227524999Y-117226639D01*
X208175001Y-117226639D02*
G75*
G02*
X209675001Y-114628563I3000001J-1D01*
G01*
X209675000Y-127532341D02*
G75*
G02*
X208175000Y-124934265I1500001J2598077D01*
G01*
X216350000Y-110774751D02*
G75*
G02*
X219349999Y-110774750I1500000J-2598076D01*
G01*
X219350000Y-131386153D02*
G75*
G02*
X216350001Y-131386154I-1500000J2598076D01*
G01*
X226025000Y-114628563D02*
G75*
G02*
X227525011Y-117226639I-1500000J-2598089D01*
G01*
X227525000Y-124934265D02*
G75*
G02*
X226024999Y-127532339I-3000000J3D01*
G01*
%TO.C,S12*%
X186675001Y-117226639D02*
X186675000Y-124934265D01*
X188175000Y-127532341D02*
X194850001Y-131386154D01*
X194850000Y-110774750D02*
X188175001Y-114628563D01*
X197850000Y-131386154D02*
X204525000Y-127532341D01*
X204525000Y-114628563D02*
X197849999Y-110774750D01*
X206024999Y-124934265D02*
X206024999Y-117226639D01*
X186675001Y-117226639D02*
G75*
G02*
X188175001Y-114628563I3000001J-1D01*
G01*
X188175000Y-127532341D02*
G75*
G02*
X186675000Y-124934265I1500001J2598077D01*
G01*
X194850000Y-110774751D02*
G75*
G02*
X197849999Y-110774750I1500000J-2598076D01*
G01*
X197850000Y-131386153D02*
G75*
G02*
X194850001Y-131386154I-1500000J2598076D01*
G01*
X204525000Y-114628563D02*
G75*
G02*
X206025011Y-117226639I-1500000J-2598089D01*
G01*
X206025000Y-124934265D02*
G75*
G02*
X204524999Y-127532339I-3000000J3D01*
G01*
%TO.C,S11*%
X165175001Y-117226639D02*
X165175000Y-124934265D01*
X166675000Y-127532341D02*
X173350001Y-131386154D01*
X173350000Y-110774750D02*
X166675001Y-114628563D01*
X176350000Y-131386154D02*
X183025000Y-127532341D01*
X183025000Y-114628563D02*
X176349999Y-110774750D01*
X184524999Y-124934265D02*
X184524999Y-117226639D01*
X165175001Y-117226639D02*
G75*
G02*
X166675001Y-114628563I3000001J-1D01*
G01*
X166675000Y-127532341D02*
G75*
G02*
X165175000Y-124934265I1500001J2598077D01*
G01*
X173350000Y-110774751D02*
G75*
G02*
X176349999Y-110774750I1500000J-2598076D01*
G01*
X176350000Y-131386153D02*
G75*
G02*
X173350001Y-131386154I-1500000J2598076D01*
G01*
X183025000Y-114628563D02*
G75*
G02*
X184525011Y-117226639I-1500000J-2598089D01*
G01*
X184525000Y-124934265D02*
G75*
G02*
X183024999Y-127532339I-3000000J3D01*
G01*
%TO.C,S10*%
X143675001Y-117226639D02*
X143675000Y-124934265D01*
X145175000Y-127532341D02*
X151850001Y-131386154D01*
X151850000Y-110774750D02*
X145175001Y-114628563D01*
X154850000Y-131386154D02*
X161525000Y-127532341D01*
X161525000Y-114628563D02*
X154849999Y-110774750D01*
X163024999Y-124934265D02*
X163024999Y-117226639D01*
X143675001Y-117226639D02*
G75*
G02*
X145175001Y-114628563I3000001J-1D01*
G01*
X145175000Y-127532341D02*
G75*
G02*
X143675000Y-124934265I1500001J2598077D01*
G01*
X151850000Y-110774751D02*
G75*
G02*
X154849999Y-110774750I1500000J-2598076D01*
G01*
X154850000Y-131386153D02*
G75*
G02*
X151850001Y-131386154I-1500000J2598076D01*
G01*
X161525000Y-114628563D02*
G75*
G02*
X163025011Y-117226639I-1500000J-2598089D01*
G01*
X163025000Y-124934265D02*
G75*
G02*
X161524999Y-127532339I-3000000J3D01*
G01*
%TO.C,S9*%
X122175001Y-117226639D02*
X122175000Y-124934265D01*
X123675000Y-127532341D02*
X130350001Y-131386154D01*
X130350000Y-110774750D02*
X123675001Y-114628563D01*
X133350000Y-131386154D02*
X140025000Y-127532341D01*
X140025000Y-114628563D02*
X133349999Y-110774750D01*
X141524999Y-124934265D02*
X141524999Y-117226639D01*
X122175001Y-117226639D02*
G75*
G02*
X123675001Y-114628563I3000001J-1D01*
G01*
X123675000Y-127532341D02*
G75*
G02*
X122175000Y-124934265I1500001J2598077D01*
G01*
X130350000Y-110774751D02*
G75*
G02*
X133349999Y-110774750I1500000J-2598076D01*
G01*
X133350000Y-131386153D02*
G75*
G02*
X130350001Y-131386154I-1500000J2598076D01*
G01*
X140025000Y-114628563D02*
G75*
G02*
X141525011Y-117226639I-1500000J-2598089D01*
G01*
X141525000Y-124934265D02*
G75*
G02*
X140024999Y-127532339I-3000000J3D01*
G01*
%TO.C,S8*%
X68425001Y-135846187D02*
X68425000Y-143553813D01*
X69925000Y-146151889D02*
X76600001Y-150005702D01*
X76600000Y-129394298D02*
X69925001Y-133248111D01*
X79600000Y-150005702D02*
X86275000Y-146151889D01*
X86275000Y-133248111D02*
X79599999Y-129394298D01*
X87774999Y-143553813D02*
X87774999Y-135846187D01*
X68425001Y-135846187D02*
G75*
G02*
X69925001Y-133248111I3000001J-1D01*
G01*
X69925000Y-146151889D02*
G75*
G02*
X68425000Y-143553813I1500001J2598077D01*
G01*
X76600000Y-129394299D02*
G75*
G02*
X79599999Y-129394298I1500000J-2598076D01*
G01*
X79600000Y-150005701D02*
G75*
G02*
X76600001Y-150005702I-1500000J2598076D01*
G01*
X86275000Y-133248111D02*
G75*
G02*
X87775011Y-135846187I-1500000J-2598089D01*
G01*
X87775000Y-143553813D02*
G75*
G02*
X86274999Y-146151887I-3000000J3D01*
G01*
%TO.C,S7*%
X46925001Y-135846187D02*
X46925000Y-143553813D01*
X48425000Y-146151889D02*
X55100001Y-150005702D01*
X55100000Y-129394298D02*
X48425001Y-133248111D01*
X58100000Y-150005702D02*
X64775000Y-146151889D01*
X64775000Y-133248111D02*
X58099999Y-129394298D01*
X66274999Y-143553813D02*
X66274999Y-135846187D01*
X46925001Y-135846187D02*
G75*
G02*
X48425001Y-133248111I3000001J-1D01*
G01*
X48425000Y-146151889D02*
G75*
G02*
X46925000Y-143553813I1500001J2598077D01*
G01*
X55100000Y-129394299D02*
G75*
G02*
X58099999Y-129394298I1500000J-2598076D01*
G01*
X58100000Y-150005701D02*
G75*
G02*
X55100001Y-150005702I-1500000J2598076D01*
G01*
X64775000Y-133248111D02*
G75*
G02*
X66275011Y-135846187I-1500000J-2598089D01*
G01*
X66275000Y-143553813D02*
G75*
G02*
X64774999Y-146151887I-3000000J3D01*
G01*
%TO.C,S6*%
X79175001Y-117226639D02*
X79175000Y-124934265D01*
X80675000Y-127532341D02*
X87350001Y-131386154D01*
X87350000Y-110774750D02*
X80675001Y-114628563D01*
X90350000Y-131386154D02*
X97025000Y-127532341D01*
X97025000Y-114628563D02*
X90349999Y-110774750D01*
X98524999Y-124934265D02*
X98524999Y-117226639D01*
X79175001Y-117226639D02*
G75*
G02*
X80675001Y-114628563I3000001J-1D01*
G01*
X80675000Y-127532341D02*
G75*
G02*
X79175000Y-124934265I1500001J2598077D01*
G01*
X87350000Y-110774751D02*
G75*
G02*
X90349999Y-110774750I1500000J-2598076D01*
G01*
X90350000Y-131386153D02*
G75*
G02*
X87350001Y-131386154I-1500000J2598076D01*
G01*
X97025000Y-114628563D02*
G75*
G02*
X98525011Y-117226639I-1500000J-2598089D01*
G01*
X98525000Y-124934265D02*
G75*
G02*
X97024999Y-127532339I-3000000J3D01*
G01*
%TO.C,S5*%
X57675001Y-117226639D02*
X57675000Y-124934265D01*
X59175000Y-127532341D02*
X65850001Y-131386154D01*
X65850000Y-110774750D02*
X59175001Y-114628563D01*
X68850000Y-131386154D02*
X75525000Y-127532341D01*
X75525000Y-114628563D02*
X68849999Y-110774750D01*
X77024999Y-124934265D02*
X77024999Y-117226639D01*
X57675001Y-117226639D02*
G75*
G02*
X59175001Y-114628563I3000001J-1D01*
G01*
X59175000Y-127532341D02*
G75*
G02*
X57675000Y-124934265I1500001J2598077D01*
G01*
X65850000Y-110774751D02*
G75*
G02*
X68849999Y-110774750I1500000J-2598076D01*
G01*
X68850000Y-131386153D02*
G75*
G02*
X65850001Y-131386154I-1500000J2598076D01*
G01*
X75525000Y-114628563D02*
G75*
G02*
X77025011Y-117226639I-1500000J-2598089D01*
G01*
X77025000Y-124934265D02*
G75*
G02*
X75524999Y-127532339I-3000000J3D01*
G01*
%TO.C,S4*%
X68425001Y-98607091D02*
X68425000Y-106314717D01*
X69925000Y-108912793D02*
X76600001Y-112766606D01*
X76600000Y-92155202D02*
X69925001Y-96009015D01*
X79600000Y-112766606D02*
X86275000Y-108912793D01*
X86275000Y-96009015D02*
X79599999Y-92155202D01*
X87774999Y-106314717D02*
X87774999Y-98607091D01*
X68425001Y-98607091D02*
G75*
G02*
X69925001Y-96009015I3000001J-1D01*
G01*
X69925000Y-108912793D02*
G75*
G02*
X68425000Y-106314717I1500001J2598077D01*
G01*
X76600000Y-92155203D02*
G75*
G02*
X79599999Y-92155202I1500000J-2598076D01*
G01*
X79600000Y-112766605D02*
G75*
G02*
X76600001Y-112766606I-1500000J2598076D01*
G01*
X86275000Y-96009015D02*
G75*
G02*
X87775011Y-98607091I-1500000J-2598089D01*
G01*
X87775000Y-106314717D02*
G75*
G02*
X86274999Y-108912791I-3000000J3D01*
G01*
%TO.C,S3*%
X46925001Y-98607091D02*
X46925000Y-106314717D01*
X48425000Y-108912793D02*
X55100001Y-112766606D01*
X55100000Y-92155202D02*
X48425001Y-96009015D01*
X58100000Y-112766606D02*
X64775000Y-108912793D01*
X64775000Y-96009015D02*
X58099999Y-92155202D01*
X66274999Y-106314717D02*
X66274999Y-98607091D01*
X46925001Y-98607091D02*
G75*
G02*
X48425001Y-96009015I3000001J-1D01*
G01*
X48425000Y-108912793D02*
G75*
G02*
X46925000Y-106314717I1500001J2598077D01*
G01*
X55100000Y-92155203D02*
G75*
G02*
X58099999Y-92155202I1500000J-2598076D01*
G01*
X58100000Y-112766605D02*
G75*
G02*
X55100001Y-112766606I-1500000J2598076D01*
G01*
X64775000Y-96009015D02*
G75*
G02*
X66275011Y-98607091I-1500000J-2598089D01*
G01*
X66275000Y-106314717D02*
G75*
G02*
X64774999Y-108912791I-3000000J3D01*
G01*
%TO.C,S2*%
X79175001Y-79987543D02*
X79175000Y-87695169D01*
X80675000Y-90293245D02*
X87350001Y-94147058D01*
X87350000Y-73535654D02*
X80675001Y-77389467D01*
X90350000Y-94147058D02*
X97025000Y-90293245D01*
X97025000Y-77389467D02*
X90349999Y-73535654D01*
X98524999Y-87695169D02*
X98524999Y-79987543D01*
X79175001Y-79987543D02*
G75*
G02*
X80675001Y-77389467I3000001J-1D01*
G01*
X80675000Y-90293245D02*
G75*
G02*
X79175000Y-87695169I1500001J2598077D01*
G01*
X87350000Y-73535655D02*
G75*
G02*
X90349999Y-73535654I1500000J-2598076D01*
G01*
X90350000Y-94147057D02*
G75*
G02*
X87350001Y-94147058I-1500000J2598076D01*
G01*
X97025000Y-77389467D02*
G75*
G02*
X98525011Y-79987543I-1500000J-2598089D01*
G01*
X98525000Y-87695169D02*
G75*
G02*
X97024999Y-90293243I-3000000J3D01*
G01*
%TO.C,S1*%
X57675001Y-79987543D02*
X57675000Y-87695169D01*
X59175000Y-90293245D02*
X65850001Y-94147058D01*
X65850000Y-73535654D02*
X59175001Y-77389467D01*
X68850000Y-94147058D02*
X75525000Y-90293245D01*
X75525000Y-77389467D02*
X68849999Y-73535654D01*
X77024999Y-87695169D02*
X77024999Y-79987543D01*
X57675001Y-79987543D02*
G75*
G02*
X59175001Y-77389467I3000001J-1D01*
G01*
X59175000Y-90293245D02*
G75*
G02*
X57675000Y-87695169I1500001J2598077D01*
G01*
X65850000Y-73535655D02*
G75*
G02*
X68849999Y-73535654I1500000J-2598076D01*
G01*
X68850000Y-94147057D02*
G75*
G02*
X65850001Y-94147058I-1500000J2598076D01*
G01*
X75525000Y-77389467D02*
G75*
G02*
X77025011Y-79987543I-1500000J-2598089D01*
G01*
X77025000Y-87695169D02*
G75*
G02*
X75524999Y-90293243I-3000000J3D01*
G01*
%TD*%
D13*
%TO.C,R1*%
X186000000Y-72450000D03*
%TD*%
%TO.C,D20*%
X239350000Y-135800000D03*
D14*
X239350000Y-143600000D03*
%TD*%
D13*
%TO.C,D19*%
X217850000Y-135800000D03*
D14*
X217850000Y-143600000D03*
%TD*%
D13*
%TO.C,D18*%
X196350000Y-135800000D03*
D14*
X196350000Y-143600000D03*
%TD*%
D13*
%TO.C,D17*%
X174850000Y-135800000D03*
D14*
X174850000Y-143600000D03*
%TD*%
D13*
%TO.C,D16*%
X153350000Y-135800000D03*
D14*
X153350000Y-143600000D03*
%TD*%
D13*
%TO.C,D15*%
X131850000Y-135800000D03*
D14*
X131850000Y-143600000D03*
%TD*%
D13*
%TO.C,D14*%
X250100000Y-117180452D03*
D14*
X250100000Y-124980452D03*
%TD*%
%TO.C,D13*%
X228600000Y-124980452D03*
D13*
X228600000Y-117180452D03*
%TD*%
%TO.C,D12*%
X207100000Y-117180452D03*
D14*
X207100000Y-124980452D03*
%TD*%
D13*
%TO.C,D11*%
X185600000Y-117180452D03*
D14*
X185600000Y-124980452D03*
%TD*%
D13*
%TO.C,D10*%
X164100000Y-117180452D03*
D14*
X164100000Y-124980452D03*
%TD*%
D13*
%TO.C,D9*%
X142600000Y-117180452D03*
D14*
X142600000Y-124980452D03*
%TD*%
D13*
%TO.C,D8*%
X88850000Y-135800000D03*
D14*
X88850000Y-143600000D03*
%TD*%
D13*
%TO.C,D7*%
X67350000Y-135800000D03*
D14*
X67350000Y-143600000D03*
%TD*%
D13*
%TO.C,D6*%
X99600000Y-117180452D03*
D14*
X99600000Y-124980452D03*
%TD*%
D13*
%TO.C,D5*%
X78100000Y-117180452D03*
D14*
X78100000Y-124980452D03*
%TD*%
D13*
%TO.C,D4*%
X88850000Y-98560904D03*
D14*
X88850000Y-106360904D03*
%TD*%
D13*
%TO.C,D3*%
X67350000Y-98560904D03*
D14*
X67350000Y-106360904D03*
%TD*%
D13*
%TO.C,D2*%
X99600000Y-79941356D03*
D14*
X99600000Y-87741356D03*
%TD*%
D13*
%TO.C,D1*%
X78100000Y-79941356D03*
D14*
X78100000Y-87741356D03*
%TD*%
M02*
