M48
; DRILL file {KiCad 8.0.5} date 2024-11-29T19:22:42+0200
; FORMAT={-:-/ absolute / inch / decimal}
; #@! TF.CreationDate,2024-11-29T19:22:42+02:00
; #@! TF.GenerationSoftware,Kicad,Pcbnew,8.0.5
; #@! TF.FileFunction,NonPlated,1,2,NPTH
FMAT,2
INCH
; #@! TA.AperFunction,NonPlated,NPTH,ComponentDrill
T1C0.0315
; #@! TA.AperFunction,NonPlated,NPTH,ComponentDrill
T2C0.0748
; #@! TA.AperFunction,NonPlated,NPTH,ComponentDrill
T3C0.1260
; #@! TA.AperFunction,NonPlated,NPTH,ComponentDrill
T4C0.1378
%
G90
G05
T1
X7.5197Y-2.8538
X7.5197Y-3.1294
T2
X2.0118Y-4.0339
X2.0118Y-5.5
X2.435Y-3.3008
X2.435Y-4.7669
X2.4449Y-4.0339
X2.4449Y-5.5
X2.8583Y-4.0339
X2.8583Y-5.5
X2.8681Y-3.3008
X2.8681Y-4.7669
X3.2815Y-3.3008
X3.2815Y-4.7669
X3.2913Y-4.0339
X3.2913Y-5.5
X3.7146Y-3.3008
X3.7146Y-4.7669
X4.5512Y-5.5
X4.9744Y-4.7669
X4.9843Y-5.5
X5.3976Y-5.5
X5.4075Y-4.7669
X5.8209Y-4.7669
X5.8307Y-5.5
X6.2441Y-5.5
X6.2539Y-4.7669
X6.6673Y-4.7669
X6.6772Y-5.5
X7.0906Y-5.5
X7.1004Y-4.7669
X7.5138Y-4.7669
X7.5236Y-5.5
X7.937Y-5.5
X7.9469Y-4.7669
X8.3602Y-4.7669
X8.3701Y-5.5
X8.7835Y-5.5
X8.7933Y-4.7669
X9.2067Y-4.7669
X9.2165Y-5.5
X9.6398Y-4.7669
T3
X1.7717Y-2.874
X1.7717Y-5.9055
X4.1339Y-2.874
X4.1339Y-4.0945
X7.0866Y-2.874
X7.0866Y-4.0945
X9.8819Y-2.874
X9.8819Y-5.9055
T4
X2.2283Y-4.0339
X2.2283Y-5.5
X2.6516Y-3.3008
X2.6516Y-4.7669
X3.0748Y-4.0339
X3.0748Y-5.5
X3.498Y-3.3008
X3.498Y-4.7669
X4.7677Y-5.5
X5.1909Y-4.7669
X5.6142Y-5.5
X6.0374Y-4.7669
X6.4606Y-5.5
X6.8839Y-4.7669
X7.3071Y-5.5
X7.7303Y-4.7669
X8.1535Y-5.5
X8.5768Y-4.7669
X9.0Y-5.5
X9.4232Y-4.7669
M30
