%TF.GenerationSoftware,KiCad,Pcbnew,8.0.5*%
%TF.CreationDate,2024-11-29T19:22:44+02:00*%
%TF.ProjectId,harmi,6861726d-692e-46b6-9963-61645f706362,rev?*%
%TF.SameCoordinates,Original*%
%TF.FileFunction,Soldermask,Top*%
%TF.FilePolarity,Negative*%
%FSLAX46Y46*%
G04 Gerber Fmt 4.6, Leading zero omitted, Abs format (unit mm)*
G04 Created by KiCad (PCBNEW 8.0.5) date 2024-11-29 19:22:44*
%MOMM*%
%LPD*%
G01*
G04 APERTURE LIST*
G04 Aperture macros list*
%AMRoundRect*
0 Rectangle with rounded corners*
0 $1 Rounding radius*
0 $2 $3 $4 $5 $6 $7 $8 $9 X,Y pos of 4 corners*
0 Add a 4 corners polygon primitive as box body*
4,1,4,$2,$3,$4,$5,$6,$7,$8,$9,$2,$3,0*
0 Add four circle primitives for the rounded corners*
1,1,$1+$1,$2,$3*
1,1,$1+$1,$4,$5*
1,1,$1+$1,$6,$7*
1,1,$1+$1,$8,$9*
0 Add four rect primitives between the rounded corners*
20,1,$1+$1,$2,$3,$4,$5,0*
20,1,$1+$1,$4,$5,$6,$7,0*
20,1,$1+$1,$6,$7,$8,$9,0*
20,1,$1+$1,$8,$9,$2,$3,0*%
G04 Aperture macros list end*
%ADD10C,6.000000*%
%ADD11C,1.600000*%
%ADD12R,1.600000X1.600000*%
%ADD13C,3.200000*%
%ADD14RoundRect,0.250000X-0.550000X-0.550000X0.550000X-0.550000X0.550000X0.550000X-0.550000X0.550000X0*%
%ADD15O,4.100000X3.000000*%
%ADD16O,1.600000X2.000000*%
%ADD17C,0.800000*%
%ADD18O,2.500000X1.500000*%
%ADD19O,1.500000X2.500000*%
%ADD20C,2.400000*%
%ADD21C,1.900000*%
%ADD22C,3.500000*%
%ADD23O,1.700000X1.700000*%
%ADD24R,1.700000X1.700000*%
G04 APERTURE END LIST*
D10*
%TO.C,REF\u002A\u002A*%
X105000000Y-73000000D03*
X105000000Y-104000000D03*
X180000000Y-73000000D03*
X180000000Y-104000000D03*
%TD*%
D11*
%TO.C,R1*%
X186000000Y-72450000D03*
X186000000Y-80250000D03*
%TD*%
%TO.C,D20*%
X239350000Y-135800000D03*
D12*
X239350000Y-143600000D03*
%TD*%
D11*
%TO.C,D19*%
X217850000Y-135800000D03*
D12*
X217850000Y-143600000D03*
%TD*%
D11*
%TO.C,D18*%
X196350000Y-135800000D03*
D12*
X196350000Y-143600000D03*
%TD*%
D11*
%TO.C,D17*%
X174850000Y-135800000D03*
D12*
X174850000Y-143600000D03*
%TD*%
D11*
%TO.C,D16*%
X153350000Y-135800000D03*
D12*
X153350000Y-143600000D03*
%TD*%
D11*
%TO.C,D15*%
X131850000Y-135800000D03*
D12*
X131850000Y-143600000D03*
%TD*%
D11*
%TO.C,D14*%
X250100000Y-117180452D03*
D12*
X250100000Y-124980452D03*
%TD*%
%TO.C,D13*%
X228600000Y-124980452D03*
D11*
X228600000Y-117180452D03*
%TD*%
%TO.C,D12*%
X207100000Y-117180452D03*
D12*
X207100000Y-124980452D03*
%TD*%
D11*
%TO.C,D11*%
X185600000Y-117180452D03*
D12*
X185600000Y-124980452D03*
%TD*%
D11*
%TO.C,D10*%
X164100000Y-117180452D03*
D12*
X164100000Y-124980452D03*
%TD*%
D11*
%TO.C,D9*%
X142600000Y-117180452D03*
D12*
X142600000Y-124980452D03*
%TD*%
D11*
%TO.C,D8*%
X88850000Y-135800000D03*
D12*
X88850000Y-143600000D03*
%TD*%
D11*
%TO.C,D7*%
X67350000Y-135800000D03*
D12*
X67350000Y-143600000D03*
%TD*%
D11*
%TO.C,D6*%
X99600000Y-117180452D03*
D12*
X99600000Y-124980452D03*
%TD*%
D11*
%TO.C,D5*%
X78100000Y-117180452D03*
D12*
X78100000Y-124980452D03*
%TD*%
D11*
%TO.C,D4*%
X88850000Y-98560904D03*
D12*
X88850000Y-106360904D03*
%TD*%
D11*
%TO.C,D3*%
X67350000Y-98560904D03*
D12*
X67350000Y-106360904D03*
%TD*%
D11*
%TO.C,D2*%
X99600000Y-79941356D03*
D12*
X99600000Y-87741356D03*
%TD*%
D11*
%TO.C,D1*%
X78100000Y-79941356D03*
D12*
X78100000Y-87741356D03*
%TD*%
D13*
%TO.C,REF\u002A\u002A*%
X251000000Y-73000000D03*
%TD*%
%TO.C,REF\u002A\u002A*%
X251000000Y-150000000D03*
%TD*%
%TO.C,REF\u002A\u002A*%
X45000000Y-150000000D03*
%TD*%
%TO.C,REF\u002A\u002A*%
X45000000Y-73000000D03*
%TD*%
D14*
%TO.C,S21*%
X226180000Y-86400000D03*
D11*
X226180000Y-91400000D03*
X226180000Y-88900000D03*
D15*
X233680000Y-83300000D03*
X233680000Y-94500000D03*
%TD*%
D16*
%TO.C,J2*%
X188700000Y-82187500D03*
X193300000Y-81087500D03*
X193300000Y-74087500D03*
D17*
X191000000Y-79487500D03*
X191000000Y-72487500D03*
D16*
X193300000Y-77087500D03*
%TD*%
D18*
%TO.C,U1*%
X197620000Y-70460000D03*
X197620000Y-73000000D03*
X197620000Y-75540000D03*
X197620000Y-78080000D03*
X197620000Y-80620000D03*
X197620000Y-83160000D03*
X197620000Y-85700000D03*
X197620000Y-88240000D03*
X197620000Y-90780000D03*
D19*
X200660000Y-91280000D03*
X203200000Y-91280000D03*
X205740000Y-91280000D03*
X208280000Y-91280000D03*
X210820000Y-91280000D03*
D18*
X213860000Y-90780000D03*
X213860000Y-88240000D03*
X213860000Y-85700000D03*
X213860000Y-83160000D03*
X213860000Y-80620000D03*
X213860000Y-78080000D03*
X213860000Y-75540000D03*
X213860000Y-73000000D03*
X213860000Y-70460000D03*
%TD*%
D20*
%TO.C,S20*%
X228600000Y-145600000D03*
X223600000Y-143500000D03*
D21*
X234100000Y-139700000D03*
D22*
X228600000Y-139700000D03*
D21*
X223100000Y-139700000D03*
%TD*%
%TO.C,S19*%
X201600000Y-139700000D03*
D22*
X207100000Y-139700000D03*
D21*
X212600000Y-139700000D03*
D20*
X202100000Y-143500000D03*
X207100000Y-145600000D03*
%TD*%
D21*
%TO.C,S18*%
X180100000Y-139700000D03*
D22*
X185600000Y-139700000D03*
D21*
X191100000Y-139700000D03*
D20*
X180600000Y-143500000D03*
X185600000Y-145600000D03*
%TD*%
D21*
%TO.C,S17*%
X158600000Y-139700000D03*
D22*
X164100000Y-139700000D03*
D21*
X169600000Y-139700000D03*
D20*
X159100000Y-143500000D03*
X164100000Y-145600000D03*
%TD*%
D21*
%TO.C,S16*%
X137100000Y-139700000D03*
D22*
X142600000Y-139700000D03*
D21*
X148100000Y-139700000D03*
D20*
X137600000Y-143500000D03*
X142600000Y-145600000D03*
%TD*%
D21*
%TO.C,S15*%
X115600000Y-139700000D03*
D22*
X121100000Y-139700000D03*
D21*
X126600000Y-139700000D03*
D20*
X116100000Y-143500000D03*
X121100000Y-145600000D03*
%TD*%
D21*
%TO.C,S14*%
X233850000Y-121080452D03*
D22*
X239350000Y-121080452D03*
D21*
X244850000Y-121080452D03*
D20*
X234350000Y-124880452D03*
X239350000Y-126980452D03*
%TD*%
D21*
%TO.C,S13*%
X212350000Y-121080452D03*
D22*
X217850000Y-121080452D03*
D21*
X223350000Y-121080452D03*
D20*
X212850000Y-124880452D03*
X217850000Y-126980452D03*
%TD*%
D21*
%TO.C,S12*%
X190850000Y-121080452D03*
D22*
X196350000Y-121080452D03*
D21*
X201850000Y-121080452D03*
D20*
X191350000Y-124880452D03*
X196350000Y-126980452D03*
%TD*%
D21*
%TO.C,S11*%
X169350000Y-121080452D03*
D22*
X174850000Y-121080452D03*
D21*
X180350000Y-121080452D03*
D20*
X169850000Y-124880452D03*
X174850000Y-126980452D03*
%TD*%
D21*
%TO.C,S10*%
X147850000Y-121080452D03*
D22*
X153350000Y-121080452D03*
D21*
X158850000Y-121080452D03*
D20*
X148350000Y-124880452D03*
X153350000Y-126980452D03*
%TD*%
D21*
%TO.C,S9*%
X126350000Y-121080452D03*
D22*
X131850000Y-121080452D03*
D21*
X137350000Y-121080452D03*
D20*
X126850000Y-124880452D03*
X131850000Y-126980452D03*
%TD*%
D21*
%TO.C,S8*%
X72600000Y-139700000D03*
D22*
X78100000Y-139700000D03*
D21*
X83600000Y-139700000D03*
D20*
X73100000Y-143500000D03*
X78100000Y-145600000D03*
%TD*%
D21*
%TO.C,S7*%
X51100000Y-139700000D03*
D22*
X56600000Y-139700000D03*
D21*
X62100000Y-139700000D03*
D20*
X51600000Y-143500000D03*
X56600000Y-145600000D03*
%TD*%
D21*
%TO.C,S6*%
X83350000Y-121080452D03*
D22*
X88850000Y-121080452D03*
D21*
X94350000Y-121080452D03*
D20*
X83850000Y-124880452D03*
X88850000Y-126980452D03*
%TD*%
D21*
%TO.C,S5*%
X61850000Y-121080452D03*
D22*
X67350000Y-121080452D03*
D21*
X72850000Y-121080452D03*
D20*
X62350000Y-124880452D03*
X67350000Y-126980452D03*
%TD*%
D21*
%TO.C,S4*%
X72600000Y-102460904D03*
D22*
X78100000Y-102460904D03*
D21*
X83600000Y-102460904D03*
D20*
X73100000Y-106260904D03*
X78100000Y-108360904D03*
%TD*%
D21*
%TO.C,S3*%
X51100000Y-102460904D03*
D22*
X56600000Y-102460904D03*
D21*
X62100000Y-102460904D03*
D20*
X51600000Y-106260904D03*
X56600000Y-108360904D03*
%TD*%
D21*
%TO.C,S2*%
X83350000Y-83841356D03*
D22*
X88850000Y-83841356D03*
D21*
X94350000Y-83841356D03*
D20*
X83850000Y-87641356D03*
X88850000Y-89741356D03*
%TD*%
D21*
%TO.C,S1*%
X61850000Y-83841356D03*
D22*
X67350000Y-83841356D03*
D21*
X72850000Y-83841356D03*
D20*
X62350000Y-87641356D03*
X67350000Y-89741356D03*
%TD*%
D23*
%TO.C,J1*%
X209375000Y-105820000D03*
X209375000Y-103280000D03*
X209375000Y-100740000D03*
D24*
X209375000Y-98200000D03*
%TD*%
M02*
